. 
  
http://www.torrentday.com/        :     The Hottest Private Tracker On The Net!!!


               www . TorrentDay . Com 
(((((((((((((= Enjoy No RAR releases =))))))))))))))))))))


...................................NFO:....................................

.
                                                     
                                                   
                                                         
                                                          
                                                           
                                                          
                                                          
                                                          
                                                           
                                                         
                                                          
                                                        
                                                      
                                     
                                                 
                                                   
                                             
                                              
                                                     
                                                      
                                                      
                                                      
                                                    
                                                     
                                                   
                                                     
                                                     
                                                      
                                                     
                                                      
                                                    
                 ARTiCHOKE                        
                                                
                      
                                                        
                                                      
                                                      
                                               
                                          
                                                   
                                            
                                                    
                                                       
                                                        
                                                      
                                                
                                                        
                                                 
                                              
                                                  
                                                
                                                  
                                        

      
                                
      SPRiNTER proudly presents...     
                                
      
 
 Bernice.Bobs.Her.Hair.1976.DVDRip.XviD-SPRiNTER  http://www.imdb.com/title/tt0074200/
 Subtitles: N/A

 Date: 2010.08

 Director: Joan Micklin Silver
 Genre: Drama


 Plot: Bernice, a shy young woman, leaves her safe home to go visit her flapper cousin. 
 When her cousin tries to teach Bernice how to be much more modern...
 

 Cast
  Shelley Duvall ... Bernice
  Veronica Cartwright ... Marjorie
  Lane Binkley ... Roberta
  Patrick Byrne ... Draycott
  Dennis Christopher ... Charley
  Polly Holliday ... Mrs. Harvey
  Mark La Mura ... Carpenter
  Murray Moston	... Barber
  Mark Newkirk ... Reece
  Gary Springer	... Otis
  Leslie Thorsen ... Genevieve
  Claudette Warlick	... Annie



      
                 
      Release notes     
                 
      

 Enjoy!


      
           
     Greetings    
           
      


NTX aAF FiCO HNR CiNEFiLE AEN HUMANiSM


      
           
      Details     
           
      


 Format                           : AVI
 Format/Info                      : Audio Video Interleave
 File size                        : 350 MiB
 Duration                         : 45mn 10s
 Overall bit rate                 : 1 083 Kbps
 Writing application              : Nandub v1.0rc2
 Writing library                  : Nandub build 1852/release
 
 Video
 ID                               : 0
 Format                           : MPEG-4 Visual
 Format profile                   : AdvancedSimple@L5
 Format settings, BVOP            : Yes
 Format settings, QPel            : No
 Format settings, GMC             : No warppoints
 Format settings, Matrix          : Default (H.263)
 Codec ID                         : XVID
 Codec ID/Hint                    : XviD
 Duration                         : 45mn 10s
 Bit rate                         : 978 Kbps
 Width                            : 512 pixels
 Height                           : 384 pixels
 Display aspect ratio             : 4:3
 Frame rate                       : 23.976 fps
 Resolution                       : 24 bits
 Colorimetry                      : 4:2:0
 Scan type                        : Progressive
 Bits/(Pixel*Frame)               : 0.207
 Stream size                      : 316 MiB (90%)
 Writing library                  : XviD 1.2.1 (UTC 2008-12-04)
 
 Audio
 ID                               : 1
 Format                           : MPEG Audio
 Format version                   : Version 1
 Format profile                   : Layer 3
 Codec ID                         : 55
 Codec ID/Hint                    : MP3
 Duration                         : 45mn 10s
 Bit rate mode                    : Variable
 Bit rate                         : 92.8 Kbps
 Minimum bit rate                 : 32.0 Kbps
 Channel(s)                       : 1 channel
 Sampling rate                    : 48.0 KHz
 Resolution                       : 16 bits
 Stream size                      : 30.0 MiB (9%)
 Alignment                        : Aligned on interleaves
 Interleave, duration             : 24 ms (0.58 video frame)
 Interleave, preload duration     : 372 ms
 Writing library                  : LAME3.95 
 Encoding settings                : -m m -V 4 -q 3 -lowpass 18 --vbr-old -b 32